<svg width="800" height="600" xmlns="http://www.w3.org/2000/svg" style="">
 <g id="Layer_1">
  <title>Layer 1</title>
  <path id="svg_3" d="m395.22679,437.78203c0,-7.57265 0,-15.14529 0,-22.71797c31.7625,-0.14714 63.52498,-0.29425 95.28749,-0.44138c0,-7.14599 0,-14.29198 0,-21.43799c-25.08562,-0.28585 -50.17123,-0.57168 -75.25684,-0.85753c28.69758,-44.59105 57.39514,-89.18213 86.09276,-133.77318c12.37013,-1.86307 23.50281,9.8343 24.35797,24.01056c1.28269,59.29231 0.57114,118.62467 0.77062,177.93546c-43.75063,0 -87.50132,0 -131.25201,0c0.00002,-7.57261 0,-15.14529 0.00002,-22.71797l0,0.00001zm-0.17872,-94.5479c-0.06401,-14.79223 -0.12803,-29.58445 -0.19205,-44.37668c-13.63362,20.24555 -25.71136,42.04945 -40.87446,60.79992c-13.43216,10.29156 -25.74718,-6.46973 -35.91426,-14.73949c-14.21344,-13.04244 -28.80199,-25.65515 -42.11343,-39.92301c-8.13833,-14.13589 5.42987,-34.23403 19.27365,-28.89486c12.40069,7.07655 22.31094,19.14847 33.52889,28.47022c6.67118,8.47889 14.66464,13.88083 19.31029,-0.11691c9.87788,-13.95857 17.79323,-30.19499 29.96187,-41.71556c12.25699,-7.91483 27.1027,-3.15857 40.47986,-4.60706c20.41686,0.07116 40.84568,-0.21017 61.25359,0.46056c-27.77665,43.25373 -55.84542,86.26749 -84.19687,129.01953c-0.47886,-14.77988 -0.38778,-29.58644 -0.51705,-44.37668l-0.00002,0.00001zm46.154,-100.62242c-16.64508,-3.16415 -29.40725,-21.28493 -29.29072,-40.65407c-5.85032,-0.28583 -11.70069,-0.57168 -17.55102,-0.85752c5.00386,-7.28892 10.00768,-14.57785 15.01153,-21.86677c24.94643,0 49.8929,0 74.83933,0c-0.07031,18.11882 1.97312,39.18657 -11.46774,52.18218c-8.00167,9.46323 -20.42309,13.03292 -31.5414,11.19618l0.00001,0zm-41.56575,-87.155c-3.248,-6.6519 -14.79828,-18.74248 -0.85588,-15.37646c28.47499,-0.47148 56.95385,-0.2344 85.43077,-0.29283c0,10.00439 0,20.0088 0,30.01322c-25.3623,0 -50.72459,0 -76.08689,0c-2.82933,-4.78131 -5.65865,-9.56261 -8.48799,-14.34391l-0.00001,-0.00001z" stroke="#000" fill="#fff" class="GLhUmjjN_0"></path>
  <path id="svg_6" d="m537.71148,214.411l48.8038,-48.48815l0,0c-51.70371,-14.62672 -66.4573,-42.18034 -34.08486,-63.656c32.37183,-21.47553 101.27657,-29.8445 159.18503,-19.33432c57.90845,10.51011 85.87082,36.4595 64.59834,59.94978c-21.27135,23.49027 -84.81485,36.83367 -146.80133,30.82631l-91.70099,40.70239z" stroke="#000" fill="#fff" class="GLhUmjjN_1"></path>
  <text font-style="normal" font-weight="normal" xml:space="preserve" text-anchor="start" font-family="'Poppins SemiBold'" font-size="24" stroke-width="0" id="svg_8" y="127.8" x="603" stroke="#000" fill="#000000">Departure</text>
 </g>
<style data-made-with="vivus-instant">.GLhUmjjN_0{stroke-dasharray:1926 1928;stroke-dashoffset:1927;animation:GLhUmjjN_draw 3500ms ease 0ms forwards;}.GLhUmjjN_1{stroke-dasharray:694 696;stroke-dashoffset:695;animation:GLhUmjjN_draw 3500ms ease 0ms forwards;}@keyframes GLhUmjjN_draw{100%{stroke-dashoffset:0;}}@keyframes GLhUmjjN_fade{0%{stroke-opacity:1;}94.8051948051948%{stroke-opacity:1;}100%{stroke-opacity:0;}}</style></svg>